<?xml version="1.0" encoding="utf-8"?>
<!-- Generator: Adobe Illustrator 25.2.0, SVG Export Plug-In . SVG Version: 6.00 Build 0)  -->
<svg version="1.1" xmlns="http://www.w3.org/2000/svg" xmlns:xlink="http://www.w3.org/1999/xlink" x="0px" y="0px"
	 viewBox="0 0 500 300" style="enable-background:new 0 0 500 300;" xml:space="preserve">
<style type="text/css">
	.st0{fill:url(#SVGID_1_);}
	.st1{fill:url(#SVGID_2_);}
	.st2{fill:url(#SVGID_3_);}
	.st3{fill:url(#SVGID_4_);}
	.st4{fill:url(#SVGID_5_);}
	.st5{fill:url(#SVGID_6_);}
	.st6{fill:url(#SVGID_7_);}
	.st7{fill:url(#SVGID_8_);}
	.st8{fill:url(#SVGID_9_);}
	.st9{fill:url(#SVGID_10_);}
	.st10{fill:url(#SVGID_11_);}
	.st11{fill:url(#SVGID_12_);}
</style>
<g id="Слой_1">
	<image style="overflow:visible;" width="512" height="340" xlink:href="NewsAnalyzer.png"  transform="matrix(1 0 0 1 -6 -6.6)">
	</image>
	<g>
		<linearGradient id="SVGID_1_" gradientUnits="userSpaceOnUse" x1="39.25" y1="59.6594" x2="85.0335" y2="59.6594">
			<stop  offset="0" style="stop-color:#009EFF"/>
			<stop  offset="1" style="stop-color:#0068FF"/>
		</linearGradient>
		<path class="st0" d="M85,37.3v5.5l-4.8,1v38.4h-8.9L53.3,51.9H53v23.8l4.8,1V82H39.2v-5.4l4.8-1V43.6l-4.8-1v-5.5
			c3,0,10.7,0,13.8,0l18.1,30.2h0.2V43.6l-4.8-1v-5.5c3.4,0,15.3,0,18.4,0V37.3z"/>
		<linearGradient id="SVGID_2_" gradientUnits="userSpaceOnUse" x1="85.3446" y1="65.4202" x2="114.4982" y2="65.4202">
			<stop  offset="0" style="stop-color:#009EFF"/>
			<stop  offset="1" style="stop-color:#0068FF"/>
		</linearGradient>
		<path class="st1" d="M101.2,82.7c-9.5,0.2-15.9-7.1-15.8-16.4c-0.2-5.2,1.1-10.1,4-13.4c4.7-6.1,16.5-6.3,21.4-0.7
			c2.5,2.7,3.7,6.4,3.7,10.9V68H94.6l-0.1,0.2c0.7,9.4,10.7,8.9,16.9,5.1l2.4,5.6C110.4,81.5,105.8,82.8,101.2,82.7z M100.3,55.1
			c-3.8,0-5.3,3.4-5.7,6.9l0.1,0.1h11.1c0.1-1.9-0.3-4.1-1.3-5.2C103.4,55.7,102.1,55.1,100.3,55.1z"/>
		<linearGradient id="SVGID_3_" gradientUnits="userSpaceOnUse" x1="116.9468" y1="65.4269" x2="165.2276" y2="65.4269">
			<stop  offset="0" style="stop-color:#009EFF"/>
			<stop  offset="1" style="stop-color:#0068FF"/>
		</linearGradient>
		<path class="st2" d="M165.2,54.2l-3.3,0.5L155,82.1h-7.5l-6.2-19.9H141l-6.2,19.9h-7.5l-7-27.5l-3.3-0.5v-5.5H132v5.5l-3.6,0.7
			l3.1,15.2h0.2l6.2-21.3h6.1l6.3,21.4h0.2l3.1-15.2l-3.6-0.7v-5.5h15.1V54.2z"/>
		<linearGradient id="SVGID_4_" gradientUnits="userSpaceOnUse" x1="167.0255" y1="65.4858" x2="194.5118" y2="65.4858">
			<stop  offset="0" style="stop-color:#009EFF"/>
			<stop  offset="1" style="stop-color:#0068FF"/>
		</linearGradient>
		<path class="st3" d="M193.4,60.3h-6.1l-1-4.2c-0.6-0.5-1.4-1-2.4-1.2c-8.6-2.7-12.7,6.3-1.7,7.5c4.2,0.8,7.1,2,9.2,3.6
			c4.4,3.3,3.8,10.8-0.8,13.9c-6,4.3-17.2,3.7-23-1.4l-0.1-7.5h6.3l1.2,4.3c0.5,0.5,1.3,0.8,2.1,1c2.1,0.6,5.5,0.4,7-0.6
			c1.8-1.1,2-3.9,0-5.2c-1-0.7-2.7-1.3-5.4-1.9c-3.9-0.8-6.9-2-8.9-3.6c-4.4-3.3-3.7-10.2,0.5-13.7c5.2-4.6,17.3-3.6,22.7,0.8
			L193.4,60.3z"/>
		<linearGradient id="SVGID_5_" gradientUnits="userSpaceOnUse" x1="196.0651" y1="59.6825" x2="238.7568" y2="59.6825">
			<stop  offset="0" style="stop-color:#009EFF"/>
			<stop  offset="1" style="stop-color:#0068FF"/>
		</linearGradient>
		<path class="st4" d="M196.1,76.7l3.2-0.5l13.7-39h9.2l13.4,39.1l3.2,0.5v5.4h-15.2v-5.4l3.1-0.6l-2-6.2h-14.5l-2,6.2l3.1,0.6v5.4
			h-15.1V76.7z M212.2,63.4h10.2l-5-15.8h-0.2L212.2,63.4z"/>
		<linearGradient id="SVGID_6_" gradientUnits="userSpaceOnUse" x1="241.0162" y1="65.0318" x2="278.9511" y2="65.0318">
			<stop  offset="0" style="stop-color:#009EFF"/>
			<stop  offset="1" style="stop-color:#0068FF"/>
		</linearGradient>
		<path class="st5" d="M241.5,76.7l4.3-1V55l-4.8-1v-5.5h13.1l0.4,4.8c1.1-1.7,2.5-3,4-3.9c4-2.4,10.4-1.7,13.3,1.8
			c1.9,2.1,2.9,5.5,2.9,10v14.5l4.3,1V82h-17v-5.4l3.8-1V61.2c0-2.3-0.5-3.8-1.3-4.8c-2.4-2.4-7.7-1.6-9.6,1.3v17.8l3.7,1v5.4h-17
			V76.7z"/>
		<linearGradient id="SVGID_7_" gradientUnits="userSpaceOnUse" x1="282.3913" y1="65.6348" x2="313.5563" y2="65.6348">
			<stop  offset="0" style="stop-color:#009EFF"/>
			<stop  offset="1" style="stop-color:#0068FF"/>
		</linearGradient>
		<path class="st6" d="M303.2,82.2c-0.2-0.6-0.5-1.1-0.6-1.7c-0.2-0.6-0.4-1.2-0.5-1.8c-6,7.1-20.1,5-19.7-5.7
			c0-3.1,1.3-5.5,3.8-7.3c2.5-1.7,6.2-2.5,11.1-2.5h4.6V60c0.3-5.3-6.6-6.1-10.1-3.8l-0.6,3.6h-6.8v-7.4c1.7-1.1,3.6-2,5.6-2.9
			c5.1-1.9,13-1.6,16.9,1.8c2.6,2,3.8,4.9,3.8,8.7c0.1,2-0.2,14.8,0.1,16.5l2.7,0.4v5.4h-10.3V82.2z M295.4,76.1
			c2.5,0.1,5-1.1,6.3-3.1v-5.1c-2.4,0.1-7.3-0.5-8.9,1.3c-1.7,1.5-2,4.4-0.4,5.8C293.1,75.9,294.1,76.1,295.4,76.1z"/>
		<linearGradient id="SVGID_8_" gradientUnits="userSpaceOnUse" x1="317.5779" y1="58.1365" x2="335.6535" y2="58.1365">
			<stop  offset="0" style="stop-color:#009EFF"/>
			<stop  offset="1" style="stop-color:#0068FF"/>
		</linearGradient>
		<path class="st7" d="M317.6,39.6v-5.5h13.8v41.7l4.3,1v5.4h-17.7v-5.4l4.3-1V40.4L317.6,39.6z"/>
		<linearGradient id="SVGID_9_" gradientUnits="userSpaceOnUse" x1="335.794" y1="72.0858" x2="371.1127" y2="72.0858">
			<stop  offset="0" style="stop-color:#009EFF"/>
			<stop  offset="1" style="stop-color:#0068FF"/>
		</linearGradient>
		<path class="st8" d="M371.1,54.2l-3.1,0.5L355.8,87c-1,2.4-2.3,4.4-3.8,6.1c-2.5,2.8-7.9,2.7-11.8,1.7l1.1-6.5
			c5.3,1.1,6.5-1.9,8.2-6.1l-10.6-27.5l-3.1-0.5v-5.5h16.3v5.5l-3.7,0.6l4.5,13.3l0.5,2.4h0.2l5.2-15.7l-3.8-0.6v-5.5h16.1V54.2z"/>
		<linearGradient id="SVGID_10_" gradientUnits="userSpaceOnUse" x1="374.6803" y1="65.5095" x2="402.3882" y2="65.5095">
			<stop  offset="0" style="stop-color:#009EFF"/>
			<stop  offset="1" style="stop-color:#0068FF"/>
		</linearGradient>
		<path class="st9" d="M385.9,75.3h9.3l0.4-4.4h6.9v11.3h-27.7v-5.4l15.8-21h-8.2l-0.4,4.4H375V48.9h26.6V54L385.9,75.3z"/>
		<linearGradient id="SVGID_11_" gradientUnits="userSpaceOnUse" x1="405.5317" y1="65.4433" x2="434.6853" y2="65.4433">
			<stop  offset="0" style="stop-color:#009EFF"/>
			<stop  offset="1" style="stop-color:#0068FF"/>
		</linearGradient>
		<path class="st10" d="M421.4,82.8c-9.5,0.2-15.9-7.1-15.8-16.4c-0.2-5.2,1.1-10.1,4-13.4c4.7-6.1,16.5-6.3,21.4-0.7
			c2.5,2.7,3.7,6.4,3.7,10.9V68h-19.9l-0.1,0.2c0.7,9.4,10.7,8.9,16.9,5.1l2.4,5.6C430.6,81.5,426,82.8,421.4,82.8z M420.5,55.2
			c-3.8,0-5.3,3.4-5.7,6.9l0.1,0.1H426c0.1-1.9-0.3-4.1-1.3-5.2C423.6,55.8,422.3,55.2,420.5,55.2z"/>
		<linearGradient id="SVGID_12_" gradientUnits="userSpaceOnUse" x1="437.2042" y1="65.0182" x2="460.75" y2="65.0182">
			<stop  offset="0" style="stop-color:#009EFF"/>
			<stop  offset="1" style="stop-color:#0068FF"/>
		</linearGradient>
		<path class="st11" d="M437.7,76.7l4.3-1V55l-4.8-1v-5.5h13.1l0.4,4.9c1.7-3.7,4.7-6.1,8.8-5.4c0.5,0.1,1,0.1,1.3,0.2l-1,8.2
			l-3.7,0.1c-2.4,0-4.1,0.8-5.2,2.9v16.2l4.3,1V82h-17.6v-5.4H437.7z"/>
	</g>
</g>
<g id="Слой_2">
</g>
</svg>
