<?xml version="1.0" encoding="utf-8"?>
<!-- Generator: Adobe Illustrator 25.2.0, SVG Export Plug-In . SVG Version: 6.00 Build 0)  -->
<svg version="1.1" id="Слой_1" xmlns="http://www.w3.org/2000/svg" xmlns:xlink="http://www.w3.org/1999/xlink" x="0px" y="0px"
	 viewBox="0 0 500 320" style="enable-background:new 0 0 500 320;" xml:space="preserve">
<style type="text/css">
	.st0{fill:#5300AA;}
	.st1{fill:#FFCE00;}
	.st2{fill:#FF0000;}
	.st3{fill:#9CFF00;}
	.st4{fill:#00CFFF;}
	.st5{fill:#FF8500;}
</style>
<rect class="st0" width="500" height="320"/>
<g>
	<path class="st1" d="M135.4,46h40.4v12.3h-13.6v59.3h-13.2V58.3h-13.6V46z"/>
	<path class="st1" d="M192.2,96.6c2.7,7.2,7.7,10.9,15,10.9c5.7,0,9.8-2.3,12.2-7.1h13.2c-1.4,4.7-4.4,9-9,12.9s-9.9,5.9-16.1,5.9
		c-8.5,0-15.2-2.8-20.6-8.3c-5.2-5.6-7.9-12.2-7.9-19.9c0-8.3,2.7-15.1,8-20.6c5.5-5.5,12.1-8.1,20.1-8.1c7.5,0,13.9,2.8,19.2,8.2
		s8,12,8,19.5c0,2.6-0.2,4.7-0.7,6.6h-41.6V96.6z M192,86.4h29.1c-1.6-8.1-6.5-12.2-14.5-12.2C199.1,74.1,194.2,78.1,192,86.4z"/>
	<path class="st1" d="M245.9,46h12.9v18.1h7.6v11.3h-7.6v42h-12.9v-42h-6.2V64h6.2V46z"/>
	<path class="st1" d="M272.6,64h11.9v5.5c2.6-4.8,6.2-7.1,11-7.1h1.2v12.5c-3.9,0.2-6.8,1.3-8.6,3.3c-1.8,2-2.7,4.8-2.7,8.6v30.9
		h-12.9V64z"/>
	<path class="st1" d="M302.7,46.3h12.9V58h-12.9V46.3z M302.7,64h12.9v53.5h-12.9V64z"/>
	<path class="st1" d="M335.1,100.4c0.6,4.8,3.1,7.1,7.5,7.1c1.6,0,2.9-0.6,4.1-1.6c1.1-1.1,1.8-2.3,1.8-3.9c0-2.2-1.8-4-5.2-5.3
		l-7.6-2.9c-7.6-2.9-11.3-7.9-11.3-15c0-4.7,1.8-8.6,5.2-11.7c3.6-3.1,7.8-4.7,12.6-4.7c5.2,0,9.5,1.7,12.7,5
		c3.3,3.3,4.9,7.2,4.9,11.6h-12.9c-0.4-3.2-2.1-4.9-5-4.9c-1.3,0-2.4,0.4-3.3,1.4c-0.9,0.9-1.4,2-1.4,3.3c0,1,0.3,1.8,1.1,2.4
		c0.7,0.7,1.7,1.2,3,1.7l5.8,1.9c9.5,3.2,14.2,8.3,14.2,15.4c0,5.8-1.8,10.3-5.5,13.8c-3.6,3.4-8,5.1-13.2,5.1
		c-5.6,0-10.1-1.4-13.8-4.3c-3.7-2.9-5.9-7.7-6.7-14.6h13.1V100.4z"/>
</g>
<g>
	<path class="st2" d="M42,309H22c-5.8,0-10.5-4.6-10.5-10.5v-20.1c0-5.8,4.6-10.5,10.5-10.5H42c5.8,0,10.5,4.6,10.5,10.5v20.1
		C52.5,304.4,47.9,309,42,309z"/>
	<path class="st3" d="M139,309h-20.1c-5.8,0-10.5-4.6-10.5-10.5v-20.1c0-5.8,4.6-10.5,10.5-10.5H139c5.8,0,10.5,4.6,10.5,10.5v20.1
		C149.3,304.4,144.7,309,139,309z"/>
	<path class="st3" d="M187.3,309h-20.1c-5.8,0-10.5-4.6-10.5-10.5v-20.1c0-5.8,4.6-10.5,10.5-10.5h20.1c5.8,0,10.5,4.6,10.5,10.5
		v20.1C197.8,304.4,193.1,309,187.3,309z"/>
	<path class="st4" d="M235.8,309h-20.1c-5.8,0-10.5-4.6-10.5-10.5v-20.1c0-5.8,4.6-10.5,10.5-10.5h20.1c5.8,0,10.5,4.6,10.5,10.5
		v20.1C246.3,304.4,241.6,309,235.8,309z"/>
	<path class="st1" d="M284.3,309h-20.1c-5.8,0-10.5-4.6-10.5-10.5v-20.1c0-5.8,4.6-10.5,10.5-10.5h20.1c5.8,0,10.5,4.6,10.5,10.5
		v20.1C294.6,304.4,289.9,309,284.3,309z"/>
	<path class="st1" d="M332.6,309h-20.1c-5.8,0-10.5-4.6-10.5-10.5v-20.1c0-5.8,4.6-10.5,10.5-10.5h20.1c5.8,0,10.5,4.6,10.5,10.5
		v20.1C343.1,304.4,338.4,309,332.6,309z"/>
	<path class="st3" d="M381.1,309H361c-5.8,0-10.5-4.6-10.5-10.5v-20.1c0-5.8,4.6-10.5,10.5-10.5h20.1c5.8,0,10.5,4.6,10.5,10.5v20.1
		C391.5,304.4,386.9,309,381.1,309z"/>
	<path class="st5" d="M429.6,309h-20.1c-5.8,0-10.5-4.6-10.5-10.5v-20.1c0-5.8,4.6-10.5,10.5-10.5h20.1c5.8,0,10.5,4.6,10.5,10.5
		v20.1C439.9,304.4,435.2,309,429.6,309z"/>
	<path class="st5" d="M478,309H458c-5.8,0-10.5-4.6-10.5-10.5v-20.1c0-5.8,4.6-10.5,10.5-10.5H478c5.8,0,10.5,4.6,10.5,10.5v20.1
		C488.3,304.4,483.7,309,478,309z"/>
	<path class="st4" d="M42,258.2H22c-5.8,0-10.5-4.6-10.5-10.5v-20.1c0-5.8,4.6-10.5,10.5-10.5H42c5.8,0,10.5,4.6,10.5,10.5v20.1
		C52.5,253.6,47.9,258.2,42,258.2z"/>
	<path class="st4" d="M90.5,258.2H70.4c-5.8,0-10.5-4.6-10.5-10.5v-20.1c0-5.8,4.6-10.5,10.5-10.5h20.1c5.8,0,10.5,4.6,10.5,10.5
		v20.1C100.8,253.6,96.3,258.2,90.5,258.2z"/>
	<path class="st4" d="M139,258.2h-20.1c-5.8,0-10.5-4.6-10.5-10.5v-20.1c0-5.8,4.6-10.5,10.5-10.5H139c5.8,0,10.5,4.6,10.5,10.5
		v20.1C149.3,253.6,144.7,258.2,139,258.2z"/>
	<path class="st3" d="M187.3,258.2h-20.1c-5.8,0-10.5-4.6-10.5-10.5v-20.1c0-5.8,4.6-10.5,10.5-10.5h20.1c5.8,0,10.5,4.6,10.5,10.5
		v20.1C197.8,253.6,193.1,258.2,187.3,258.2z"/>
	<path class="st1" d="M235.8,258.2h-20.1c-5.8,0-10.5-4.6-10.5-10.5v-20.1c0-5.8,4.6-10.5,10.5-10.5h20.1c5.8,0,10.5,4.6,10.5,10.5
		v20.1C246.3,253.6,241.6,258.2,235.8,258.2z"/>
	<path class="st1" d="M284.3,258.2h-20.1c-5.8,0-10.5-4.6-10.5-10.5v-20.1c0-5.8,4.6-10.5,10.5-10.5h20.1c5.8,0,10.5,4.6,10.5,10.5
		v20.1C294.6,253.6,289.9,258.2,284.3,258.2z"/>
	<path class="st2" d="M332.6,258.2h-20.1c-5.8,0-10.5-4.6-10.5-10.5v-20.1c0-5.8,4.6-10.5,10.5-10.5h20.1c5.8,0,10.5,4.6,10.5,10.5
		v20.1C343.1,253.6,338.4,258.2,332.6,258.2z"/>
	<path class="st3" d="M381.1,258.2H361c-5.8,0-10.5-4.6-10.5-10.5v-20.1c0-5.8,4.6-10.5,10.5-10.5h20.1c5.8,0,10.5,4.6,10.5,10.5
		v20.1C391.5,253.6,386.9,258.2,381.1,258.2z"/>
	<path class="st5" d="M478,258.2H458c-5.8,0-10.5-4.6-10.5-10.5v-20.1c0-5.8,4.6-10.5,10.5-10.5H478c5.8,0,10.5,4.6,10.5,10.5v20.1
		C488.3,253.6,483.7,258.2,478,258.2z"/>
	<path class="st4" d="M90.5,207.6H70.4c-5.8,0-10.5-4.6-10.5-10.5V177c0-5.8,4.6-10.5,10.5-10.5h20.1c5.8,0,10.5,4.6,10.5,10.5v20.1
		C100.8,202.9,96.3,207.6,90.5,207.6z"/>
	<path class="st3" d="M187.3,207.6h-20.1c-5.8,0-10.5-4.6-10.5-10.5V177c0-5.8,4.6-10.5,10.5-10.5h20.1c5.8,0,10.5,4.6,10.5,10.5
		v20.1C197.8,202.9,193.1,207.6,187.3,207.6z"/>
	<path class="st2" d="M332.6,207.6h-20.1c-5.8,0-10.5-4.6-10.5-10.5V177c0-5.8,4.6-10.5,10.5-10.5h20.1c5.8,0,10.5,4.6,10.5,10.5
		v20.1C343.1,202.9,338.4,207.6,332.6,207.6z"/>
	<path class="st2" d="M381.1,207.6H361c-5.8,0-10.5-4.6-10.5-10.5V177c0-5.8,4.6-10.5,10.5-10.5h20.1c5.8,0,10.5,4.6,10.5,10.5v20.1
		C391.5,202.9,386.9,207.6,381.1,207.6z"/>
	<path class="st2" d="M429.6,207.6h-20.1c-5.8,0-10.5-4.6-10.5-10.5V177c0-5.8,4.6-10.5,10.5-10.5h20.1c5.8,0,10.5,4.6,10.5,10.5
		v20.1C439.9,202.9,435.2,207.6,429.6,207.6z"/>
</g>
</svg>
