<?xml version="1.0" encoding="utf-8"?>
<!-- Generator: Adobe Illustrator 25.2.0, SVG Export Plug-In . SVG Version: 6.00 Build 0)  -->
<svg version="1.1" id="Слой_1" xmlns="http://www.w3.org/2000/svg" xmlns:xlink="http://www.w3.org/1999/xlink" x="0px" y="0px"
	 viewBox="0 0 500 320" style="enable-background:new 0 0 500 320;" xml:space="preserve">
<style type="text/css">
	.st0{fill:#FFFFFF;}
</style>
<rect width="500" height="320"/>
<g>
	<path class="st0" d="M83.8,51.3V71H72v12.1c0,1.8,0.5,3.2,1.4,4.1c0.9,0.9,2.2,1.4,4,1.5c1.7,0.1,3.9,0.1,6.4,0v18.6
		c-11.6,1.6-19.9,0.7-24.9-3c-4.9-3.6-7.5-10.3-7.5-20.1V71h-7.8V51.3h7.8v-9.5l20.7-6.1v15.6C72.1,51.3,83.8,51.3,83.8,51.3z"/>
	<path class="st0" d="M146.1,86.4h-37.1c1.8,3.7,5.6,5.6,11.4,5.6c3.3,0,6.6-1.1,9.5-3.6l13.6,11.4c-5.6,6.1-13.4,9.1-23.7,9.1
		c-9.4,0-17.1-2.8-23-8.3C91,95,88.1,88,88.1,79.6c0-8.5,2.8-15.5,8.4-21.3c5.6-5.6,12.8-8.5,21.4-8.5c8.5,0,15.5,2.8,20.9,8.4
		c5.5,5.5,8.3,12.5,8.3,20.9C147,81.5,146.6,83.9,146.1,86.4z M108.6,73.1h18.7c-1.1-4.5-4.3-6.7-9.1-6.7
		C113.5,66.4,110.3,68.6,108.6,73.1z"/>
	<path class="st0" d="M189.2,78.7l20.3,28.6h-22.9l-9-12.5l-9,12.5h-22.9l20.5-28.6l-19.5-27.2h22.9l8,11.3l8-11.3h22.9L189.2,78.7z
		"/>
	<path class="st0" d="M250.9,51.3V71h-11.7v12.1c0,1.8,0.5,3.2,1.4,4.1c0.9,0.9,2.2,1.4,4,1.5c1.7,0.1,3.9,0.1,6.4,0v18.6
		c-11.6,1.6-19.9,0.7-24.9-3c-4.9-3.6-7.5-10.3-7.5-20.1V71h-7.8V51.3h7.8v-9.5l20.7-6.1v15.6C239.3,51.3,250.9,51.3,250.9,51.3z"/>
	<path class="st0" d="M74.3,192.6c-8.6,0-15.6-2.8-21.4-8.4c-5.6-5.6-8.5-12.8-8.5-21.1c0-8.4,2.9-15.4,8.5-21
		c5.6-5.6,12.8-8.5,21.4-8.5c5.5,0,10.6,1.4,15.2,4c4.6,2.6,8.2,6.2,10.6,10.7l-17.5,10c-1.8-3.1-4.6-4.7-8.3-4.7
		c-2.6,0-4.8,0.9-6.6,2.8c-1.7,1.8-2.6,4.1-2.6,6.9c0,2.8,0.9,5.1,2.6,6.9c1.7,1.8,3.9,2.8,6.6,2.8c3.9,0,6.7-1.6,8.3-4.8l17.5,10.1
		c-2.4,4.6-6,8.2-10.6,10.7C84.9,191.3,79.9,192.6,74.3,192.6z"/>
	<path class="st0" d="M131.6,192.6c-8.4,0-15.5-2.9-21.4-8.5c-5.9-5.6-8.7-12.6-8.7-21c0-8.4,2.9-15.4,8.7-21
		c5.7-5.6,12.9-8.5,21.4-8.5s15.6,2.9,21.4,8.5c5.9,5.7,8.7,12.8,8.7,21c0,8.4-2.9,15.4-8.7,21C147.1,189.8,140.1,192.6,131.6,192.6
		z M124.7,170.3c1.8,1.8,4,2.6,6.8,2.6c2.8,0,4.9-0.9,6.7-2.6c1.8-2,2.6-4.4,2.6-7.1c0-2.9-0.9-5.3-2.6-7c-1.6-1.8-3.9-2.8-6.7-2.8
		c-2.8,0-5.1,0.9-6.8,2.8c-1.7,1.8-2.5,4.3-2.5,7C122.1,165.9,123,168.3,124.7,170.3z"/>
	<path class="st0" d="M202.7,164v-28.7h20.7v55.9h-20.7v-5.5c-3.4,4.7-8.4,7-14.9,7c-6.2,0-11.1-2.2-14.8-6.4
		c-3.7-4.3-5.4-10.6-5.4-18.6v-32.3h20.7v30.1c0,4.9,2.3,7.5,6.9,7.5c2.4,0,4.4-0.8,5.6-2.3C202,168.8,202.7,166.7,202.7,164z"/>
	<path class="st0" d="M268,133.6c6.2,0,11.1,2.2,14.8,6.4c3.6,4.4,5.4,10.6,5.4,18.6V191h-20.7v-30.1c0-4.9-2.3-7.5-6.9-7.5
		c-2.4,0-4.4,0.8-5.6,2.3c-1.3,1.6-2,3.7-2,6.4v28.7h-20.7V135h20.7v5.5C256.5,135.9,261.6,133.6,268,133.6z"/>
	<path class="st0" d="M83.8,219v19.7H72v12.1c0,1.8,0.5,3.2,1.4,4.1c0.9,0.9,2.2,1.4,4,1.5c1.7,0.1,3.9,0.1,6.4,0v18.5
		c-11.6,1.6-19.9,0.7-24.9-3c-4.9-3.6-7.5-10.3-7.5-20.1v-13.2h-7.8v-19.7h7.8v-9.5l20.7-6.1v15.6L83.8,219L83.8,219z"/>
	<path class="st0" d="M146.1,254h-37.1c1.8,3.7,5.6,5.6,11.4,5.6c3.3,0,6.6-1.1,9.5-3.6l13.6,11.4c-5.6,6.1-13.4,9.1-23.7,9.1
		c-9.4,0-17.1-2.8-23-8.3c-5.7-5.6-8.6-12.6-8.6-21c0-8.5,2.8-15.5,8.4-21.3c5.6-5.6,12.8-8.5,21.4-8.5c8.5,0,15.5,2.8,20.9,8.4
		c5.5,5.5,8.3,12.5,8.3,20.9C147,249,146.6,251.5,146.1,254z M108.6,240.8h18.7c-1.1-4.5-4.3-6.7-9.1-6.7
		C113.5,234,110.3,236.3,108.6,240.8z"/>
	<path class="st0" d="M173.8,219v10.8c1-3.7,3.1-6.7,6.1-8.7s6.6-3.2,10.7-3.2v22.3c-4.5-0.6-8.4,0.3-11.7,2.6
		c-3.3,2.4-5.1,6.1-5.1,11.1v20.8h-20.7v-55.9h20.7L173.8,219L173.8,219z"/>
</g>
<rect x="211.2" y="205.9" class="st0" width="5.7" height="75.3"/>
<rect x="202.2" y="205.9" class="st0" width="23.9" height="5.7"/>
<rect x="202.2" y="276" class="st0" width="23.9" height="5.7"/>
</svg>
