<?xml version="1.0" encoding="utf-8"?>
<!-- Generator: Adobe Illustrator 25.2.0, SVG Export Plug-In . SVG Version: 6.00 Build 0)  -->
<svg version="1.1" id="Слой_1" xmlns="http://www.w3.org/2000/svg" xmlns:xlink="http://www.w3.org/1999/xlink" x="0px" y="0px"
	 viewBox="0 0 500 320" style="enable-background:new 0 0 500 320;" xml:space="preserve">
<style type="text/css">
	.st0{fill:url(#SVGID_1_);}
	.st1{fill:#FFFFFF;}
</style>
<linearGradient id="SVGID_1_" gradientUnits="userSpaceOnUse" x1="506.782" y1="310.2532" x2="-6.782" y2="13.7468" gradientTransform="matrix(1 0 0 -1 0 322)">
	<stop  offset="0" style="stop-color:#FF0000"/>
	<stop  offset="1" style="stop-color:#FF7900"/>
</linearGradient>
<rect class="st0" width="500" height="320"/>
<g>
	<path class="st1" d="M339.4,151H160.8c-9.3,0-16.9,7.6-16.9,16.9v111.2c0,9.3,7.6,16.9,16.9,16.9h178.6c9.3,0,16.9-7.6,16.9-16.9
		V167.9C356.1,158.6,348.5,151,339.4,151z"/>
	<path class="st1" d="M566.7,151H388.1c-9.3,0-16.9,7.6-16.9,16.9v111.2c0,9.3,7.6,16.9,16.9,16.9h178.6c9.3,0,16.9-7.6,16.9-16.9
		V167.9C583.5,158.6,575.9,151,566.7,151z M466.2,233.2l-22.5,22.5l-9.8-9.8l22.5-22.5l-22.5-22.5l9.8-9.8l22.5,22.5l9.8,9.8
		L466.2,233.2z"/>
	<path class="st1" d="M112,151H-66.7c-9.3,0-16.9,7.6-16.9,16.9v111.2c0,9.3,7.6,16.9,16.9,16.9H112c9.3,0,16.9-7.6,16.9-16.9V167.9
		C128.8,158.6,121.2,151,112,151z M66,245.9l-9.8,9.8l-22.5-22.5l-9.8-9.8l9.8-9.8l22.5-22.5l9.8,9.8l-22.4,22.5L66,245.9z"/>
</g>
<g>
	<path class="st1" d="M123.8,83V92c0,5.5-1.3,9.7-4,12.7c-2.7,2.9-6.7,4.4-11.9,4.4s-9.2-1.5-11.9-4.4c-2.7-2.9-4-7.2-4-12.7V56.9
		c0-5.5,1.3-9.7,4-12.7s6.7-4.4,11.9-4.4s9.2,1.5,11.9,4.4s4,7.2,4,12.7v6.5h-10v-7.2c0-2.4-0.5-4.1-1.5-5.2c-1.1-0.9-2.4-1.5-4-1.5
		c-1.7,0-3.1,0.5-4,1.5c-1.1,1.1-1.5,2.7-1.5,5.2v36.6c0,2.4,0.5,4.1,1.5,5.1c0.9,0.9,2.4,1.5,4,1.5c1.7,0,3.1-0.5,4-1.5
		s1.5-2.7,1.5-5.1V83H123.8z"/>
	<path class="st1" d="M168.7,108.4h-10.8L156,96.1h-13.1l-1.9,12.3h-9.7l10.8-67.8h15.6L168.7,108.4z M144.4,86.8h10.3l-5.1-34.3
		L144.4,86.8z"/>
	<path class="st1" d="M199.7,108.4c-0.1-0.4-0.3-0.9-0.4-1.2c-0.1-0.4-0.3-0.9-0.4-1.5c-0.1-0.5-0.1-1.3-0.1-2.3s0-2,0-3.3V89.4
		c0-3.2-0.5-5.3-1.6-6.7c-1.1-1.3-2.9-2-5.3-2h-3.7v27.6h-10.7V40.6h16c5.6,0,9.6,1.3,12,3.9c2.5,2.5,3.7,6.5,3.7,11.7v5.3
		c0,6.9-2.3,11.6-6.9,13.7c2.7,1.1,4.5,2.9,5.6,5.3c0.9,2.5,1.5,5.5,1.5,9.1v10.4c0,1.7,0,3.2,0.1,4.4s0.4,2.5,0.9,3.9L199.7,108.4
		L199.7,108.4z M188.1,50.2V71h4.1c2,0,3.6-0.5,4.7-1.6s1.7-2.9,1.7-5.6v-6.7c0-2.4-0.4-4.3-1.3-5.3s-2.3-1.6-4.1-1.6
		C193.2,50.2,188.1,50.2,188.1,50.2z"/>
	<path class="st1" d="M219.4,56.9c0-5.5,1.3-9.7,4.1-12.7c2.8-2.9,6.8-4.4,12-4.4c5.2,0,9.2,1.5,12,4.4s4.1,7.2,4.1,12.7v35.2
		c0,5.5-1.3,9.7-4.1,12.7s-6.8,4.4-12,4.4c-5.2,0-9.2-1.5-12-4.4c-2.8-2.9-4.1-7.2-4.1-12.7V56.9z M230,92.8c0,2.4,0.5,4.1,1.5,5.2
		c0.9,1.1,2.4,1.5,4,1.5c1.7,0,3.1-0.5,4-1.5s1.5-2.7,1.5-5.2V56.1c0-2.4-0.5-4.1-1.5-5.2c-1.1-0.9-2.4-1.5-4-1.5
		c-1.7,0-3.1,0.5-4,1.5c-1.1,1.1-1.5,2.7-1.5,5.2V92.8z"/>
	<path class="st1" d="M272.6,40.6v52.3c0,2.4,0.5,4.1,1.5,5.1c0.9,0.9,2.4,1.5,4,1.5c1.7,0,3.1-0.5,4-1.5s1.5-2.7,1.5-5.1V40.6h10
		v51.6c0,5.5-1.3,9.7-4,12.7c-2.7,2.9-6.7,4.4-11.9,4.4s-9.2-1.5-11.9-4.4c-2.7-2.9-4-7.2-4-12.7V40.6H272.6z"/>
	<path class="st1" d="M303.5,56.9c0-5.5,1.3-9.7,3.9-12.7c2.7-2.9,6.5-4.4,11.7-4.4s9.2,1.5,11.7,4.4c2.7,2.9,3.9,7.2,3.9,12.7V59
		h-10v-2.8c0-2.4-0.5-4.1-1.5-5.2c-0.9-0.9-2.3-1.5-3.9-1.5c-1.7,0-2.9,0.5-3.9,1.5c-0.9,1.1-1.5,2.7-1.5,5.2c0,2.3,0.5,4.4,1.6,6.1
		c1.1,1.7,2.3,3.5,3.9,5.1c1.6,1.6,3.2,3.2,4.9,4.8c1.7,1.6,3.5,3.3,4.9,5.2c1.6,1.9,2.8,4,3.9,6.4c1.1,2.4,1.6,5.2,1.6,8.4
		c0,5.5-1.3,9.7-4,12.7s-6.7,4.4-11.9,4.4s-9.2-1.5-11.9-4.4c-2.7-2.9-4-7.2-4-12.7v-4.1h10v4.8c0,2.4,0.5,4.1,1.5,5.1
		c0.9,0.9,2.4,1.5,4,1.5c1.7,0,3.1-0.5,4-1.5s1.5-2.7,1.5-5.1c0-2.3-0.5-4.4-1.6-6.1c-1.1-1.7-2.3-3.5-3.9-5.1
		c-1.6-1.6-3.2-3.2-4.9-4.8c-1.7-1.6-3.5-3.3-4.9-5.2c-1.6-1.9-2.8-4-3.9-6.4C304.1,62.9,303.5,60.1,303.5,56.9z"/>
	<path class="st1" d="M355.5,69.1h14.7v9.7h-14.7v19.9H374v9.7h-29.1V40.6H374v9.6h-18.4V69.1z"/>
	<path class="st1" d="M384.4,40.6H395v58h17.5v9.7h-28.1L384.4,40.6L384.4,40.6z"/>
</g>
</svg>
