<?xml version="1.0" encoding="utf-8"?>
<!-- Generator: Adobe Illustrator 21.1.0, SVG Export Plug-In . SVG Version: 6.00 Build 0)  -->
<svg version="1.1" id="Слой_1" xmlns="http://www.w3.org/2000/svg" xmlns:xlink="http://www.w3.org/1999/xlink" x="0px" y="0px"
	 viewBox="0 0 300 300" style="enable-background:new 0 0 300 300;" xml:space="preserve">
<style type="text/css">
	.st0{fill:url(#SVGID_1_);}
	.st1{fill:#FFFFFF;}
</style>
<linearGradient id="SVGID_1_" gradientUnits="userSpaceOnUse" x1="327.4519" y1="47.5481" x2="-27.4519" y2="252.4519">
	<stop  offset="0" style="stop-color:#FF0000"/>
	<stop  offset="1" style="stop-color:#FF7900"/>
</linearGradient>
<rect x="0" class="st0" width="300" height="300"/>
<title>logo</title>
<g>
	<path class="st1" d="M212.3,141H87.8c-6.5,0-11.8,5.3-11.8,11.8v77.5c0,6.5,5.3,11.8,11.8,11.8h124.5c6.5,0,11.8-5.3,11.8-11.8
		v-77.5C224,146.3,218.7,141,212.3,141z"/>
	<path class="st1" d="M370.8,141H246.3c-6.5,0-11.8,5.3-11.8,11.8v77.5c0,6.5,5.3,11.8,11.8,11.8h124.5c6.5,0,11.8-5.3,11.8-11.8
		v-77.5C382.5,146.3,377.2,141,370.8,141z M279.8,198.3l-15.7,15.7l-6.8-6.8l15.7-15.7l-15.7-15.7l6.8-6.8l15.7,15.7l6.8,6.8
		L279.8,198.3z"/>
	<path class="st1" d="M53.8,141H-70.8c-6.5,0-11.8,5.3-11.8,11.8v77.5c0,6.5,5.3,11.8,11.8,11.8H53.8c6.5,0,11.8-5.3,11.8-11.8
		v-77.5C65.5,146.3,60.2,141,53.8,141z M42.6,207.2l-6.8,6.8l-15.7-15.7l-6.8-6.8l6.8-6.8l15.7-15.7l6.8,6.8L27,191.5L42.6,207.2z"
		/>
</g>
<g>
	<path class="st1" d="M56,83.6v6.7c0,4.1-1,7.3-3,9.5c-2,2.2-5,3.3-8.9,3.3s-6.9-1.1-8.9-3.3c-2-2.2-3-5.4-3-9.5V64
		c0-4.1,1-7.3,3-9.5c2-2.2,5-3.3,8.9-3.3s6.9,1.1,8.9,3.3c2,2.2,3,5.4,3,9.5v4.9h-7.5v-5.4c0-1.8-0.4-3.1-1.1-3.9
		c-0.8-0.7-1.8-1.1-3-1.1c-1.3,0-2.3,0.4-3,1.1c-0.8,0.8-1.1,2-1.1,3.9v27.4c0,1.8,0.4,3.1,1.1,3.8c0.7,0.7,1.8,1.1,3,1.1
		c1.3,0,2.3-0.4,3-1.1c0.7-0.7,1.1-2,1.1-3.8v-7.3H56z"/>
	<path class="st1" d="M89.6,102.6h-8.1l-1.4-9.2h-9.8l-1.4,9.2h-7.3l8.1-50.8h11.7L89.6,102.6z M71.4,86.4h7.7l-3.8-25.7L71.4,86.4z
		"/>
	<path class="st1" d="M112.9,102.6c-0.1-0.3-0.2-0.7-0.3-0.9c-0.1-0.3-0.2-0.7-0.3-1.1c-0.1-0.4-0.1-1-0.1-1.7c0-0.7,0-1.5,0-2.5v-8
		c0-2.4-0.4-4-1.2-5c-0.8-1-2.2-1.5-4-1.5h-2.8v20.7h-8V51.8h12c4.2,0,7.2,1,9,2.9c1.9,1.9,2.8,4.9,2.8,8.8v4
		c0,5.2-1.7,8.7-5.2,10.3c2,0.8,3.4,2.2,4.2,4c0.7,1.9,1.1,4.1,1.1,6.8v7.8c0,1.3,0,2.4,0.1,3.3c0.1,0.9,0.3,1.9,0.7,2.9H112.9z
		 M104.2,59v15.6h3.1c1.5,0,2.7-0.4,3.5-1.2c0.8-0.8,1.3-2.2,1.3-4.2v-5c0-1.8-0.3-3.2-1-4c-0.7-0.8-1.7-1.2-3.1-1.2H104.2z"/>
	<path class="st1" d="M127.6,64c0-4.1,1-7.3,3.1-9.5c2.1-2.2,5.1-3.3,9-3.3s6.9,1.1,9,3.3c2.1,2.2,3.1,5.4,3.1,9.5v26.4
		c0,4.1-1,7.3-3.1,9.5c-2.1,2.2-5.1,3.3-9,3.3s-6.9-1.1-9-3.3c-2.1-2.2-3.1-5.4-3.1-9.5V64z M135.6,90.9c0,1.8,0.4,3.1,1.1,3.9
		c0.7,0.8,1.8,1.1,3,1.1c1.3,0,2.3-0.4,3-1.1c0.7-0.7,1.1-2,1.1-3.9V63.4c0-1.8-0.4-3.1-1.1-3.9c-0.8-0.7-1.8-1.1-3-1.1
		c-1.3,0-2.3,0.4-3,1.1c-0.8,0.8-1.1,2-1.1,3.9V90.9z"/>
	<path class="st1" d="M167.5,51.8v39.2c0,1.8,0.4,3.1,1.1,3.8c0.7,0.7,1.8,1.1,3,1.1c1.3,0,2.3-0.4,3-1.1c0.7-0.7,1.1-2,1.1-3.8
		V51.8h7.5v38.7c0,4.1-1,7.3-3,9.5c-2,2.2-5,3.3-8.9,3.3c-3.9,0-6.9-1.1-8.9-3.3c-2-2.2-3-5.4-3-9.5V51.8H167.5z"/>
	<path class="st1" d="M190.7,64c0-4.1,1-7.3,2.9-9.5c2-2.2,4.9-3.3,8.8-3.3s6.9,1.1,8.8,3.3c2,2.2,2.9,5.4,2.9,9.5v1.6h-7.5v-2.1
		c0-1.8-0.4-3.1-1.1-3.9c-0.7-0.7-1.7-1.1-2.9-1.1c-1.3,0-2.2,0.4-2.9,1.1c-0.7,0.8-1.1,2-1.1,3.9c0,1.7,0.4,3.3,1.2,4.6
		c0.8,1.3,1.7,2.6,2.9,3.8c1.2,1.2,2.4,2.4,3.7,3.6c1.3,1.2,2.6,2.5,3.7,3.9c1.2,1.4,2.1,3,2.9,4.8c0.8,1.8,1.2,3.9,1.2,6.3
		c0,4.1-1,7.3-3,9.5c-2,2.2-5,3.3-8.9,3.3c-3.9,0-6.9-1.1-8.9-3.3c-2-2.2-3-5.4-3-9.5v-3.1h7.5v3.6c0,1.8,0.4,3.1,1.1,3.8
		c0.7,0.7,1.8,1.1,3,1.1c1.3,0,2.3-0.4,3-1.1c0.7-0.7,1.1-2,1.1-3.8c0-1.7-0.4-3.3-1.2-4.6c-0.8-1.3-1.7-2.6-2.9-3.8
		c-1.2-1.2-2.4-2.4-3.7-3.6c-1.3-1.2-2.6-2.5-3.7-3.9c-1.2-1.4-2.1-3-2.9-4.8C191.1,68.5,190.7,66.4,190.7,64z"/>
	<path class="st1" d="M229.7,73.2h11v7.3h-11v14.9h13.8v7.3h-21.8V51.8h21.8V59h-13.8V73.2z"/>
	<path class="st1" d="M251.3,51.8h8v43.5h13.1v7.3h-21.1V51.8z"/>
</g>
</svg>
