<?xml version="1.0" encoding="utf-8"?>
<!-- Generator: Adobe Illustrator 21.1.0, SVG Export Plug-In . SVG Version: 6.00 Build 0)  -->
<svg version="1.1" id="Слой_1" xmlns="http://www.w3.org/2000/svg" xmlns:xlink="http://www.w3.org/1999/xlink" x="0px" y="0px"
	 viewBox="0 0 72.3 72.5" style="enable-background:new 0 0 72.3 72.5;" xml:space="preserve">
<style type="text/css">
	.st0{fill-rule:evenodd;clip-rule:evenodd;fill:#FFFFFF;}
</style>
<title>logo</title>
<g>
	<path class="st0" d="M45,59.4c0-3.3-1.1-5.5-2.4-6.6c7.9-0.9,16.3-3.9,16.3-17.6c0-3.9-1.4-7.1-3.7-9.6c0.4-0.9,1.6-4.5-0.4-9.4
		c0,0-3-1-9.8,3.6c-2.8-0.8-5.9-1.2-8.9-1.2c-3,0-6.1,0.4-8.9,1.2c-6.8-4.6-9.8-3.6-9.8-3.6c-1.9,4.9-0.7,8.5-0.3,9.4
		c-2.3,2.5-3.7,5.7-3.7,9.6c0,13.6,8.3,16.7,16.2,17.6c-1,0.9-1.9,2.5-2.3,4.8c-2,0.9-7.2,2.5-10.4-3c0,0-1.9-3.4-5.5-3.7
		c0,0-3.5,0-0.2,2.2c0,0,2.3,1.1,4,5.2c0,0,2.1,6.9,12,4.8c0,3,0,5.2,0,6.1c0,0.4,0,1.8-0.2,3.3h18.2C45.1,71,45,69.6,45,69.2
		C45,68,45,64.2,45,59.4z"/>
</g>
</svg>
